<?xml version="1.0"?>
<svg width="24" height="24" xmlns="http://www.w3.org/2000/svg" xmlns:svg="http://www.w3.org/2000/svg">
 <g class="layer">
  <title>Layer 1</title>
  <path d="m0,12.03c0,-6.63 5.37,-12 12,-12l0,0c6.63,0 12,5.37 12,12l0,0c0,6.63 -5.37,12 -12,12l0,0c-6.63,0 -12,-5.37 -12,-12l0,0z" fill="#fff192" id="svg_1"/>
  <path d="m12.5,5.5c0,-0.28 -0.22,-0.5 -0.5,-0.5c-0.28,0 -0.5,0.22 -0.5,0.5l0,0.5l-2,0c-0.83,0 -1.5,0.67 -1.5,1.5l0,3c0,0.83 0.67,1.5 1.5,1.5l5,0c0.83,0 1.5,-0.67 1.5,-1.5l0,-3c0,-0.83 -0.67,-1.5 -1.5,-1.5l-2,0l0,-0.5zm-3.5,2c0,-0.28 0.22,-0.5 0.5,-0.5l5,0c0.28,0 0.5,0.22 0.5,0.5l0,3c0,0.28 -0.22,0.5 -0.5,0.5l-5,0c-0.28,0 -0.5,-0.22 -0.5,-0.5l0,-3zm-1,7.5c0,-0.28 0.22,-0.5 0.5,-0.5l7,0c0.28,0 0.5,0.22 0.5,0.5l0,0.35c0,0.95 -0.41,1.58 -1.08,1.99c-0.7,0.44 -1.72,0.66 -2.92,0.66c-1.2,0 -2.21,-0.22 -2.92,-0.66c-0.67,-0.41 -1.08,-1.04 -1.08,-1.99l0,-0.35zm0.5,-1.5c-0.83,0 -1.5,0.67 -1.5,1.5l0,0.35c0,1.3 0.6,2.25 1.55,2.84c0.93,0.58 2.16,0.81 3.45,0.81c1.3,0 2.53,-0.23 3.45,-0.81c0.96,-0.59 1.55,-1.54 1.55,-2.84l0,-0.35c0,-0.83 -0.67,-1.5 -1.5,-1.5l-7,0zm2.75,-4.5c0,0.41 -0.34,0.75 -0.75,0.75c-0.41,0 -0.75,-0.34 -0.75,-0.75c0,-0.41 0.34,-0.75 0.75,-0.75c0.41,0 0.75,0.34 0.75,0.75zm2.25,0.75c0.41,0 0.75,-0.34 0.75,-0.75c0,-0.41 -0.34,-0.75 -0.75,-0.75c-0.41,0 -0.75,0.34 -0.75,0.75c0,0.41 0.34,0.75 0.75,0.75z" fill="#3f3f3f" id="svg_2" transform="matrix(1 0 0 1 0 0)"/>
 </g>
</svg>